HIERARCHY
ROOT root
{
	OFFSET	0	13.1	24.9
	CHANNELS 6  Xposition Yposition Zposition Xrotation Yrotation Zrotation
	JOINT spine_1
	{
		OFFSET	0	9.99999	0
		CHANNELS 3  Xrotation Yrotation Zrotation
		JOINT spine_2
		{
			OFFSET	0	112	-10
			CHANNELS 3  Xrotation Yrotation Zrotation
			JOINT spine_3
			{
				OFFSET	0	206.5	19.3
				CHANNELS 3  Xrotation Yrotation Zrotation
				JOINT spine_4
				{
					OFFSET	0	110.4	14.6
					CHANNELS 3  Xrotation Yrotation Zrotation
					JOINT neck_1
					{
						OFFSET	0	71.8	-50.3
						CHANNELS 3  Xrotation Yrotation Zrotation
						JOINT neck_2
						{
							OFFSET	0	86.2	-25.8
							CHANNELS 3  Xrotation Yrotation Zrotation
							JOINT head_ee
							{
								OFFSET	0	179.8	-8.7
								CHANNELS 3  Xrotation Yrotation Zrotation
								End Site
								{
									OFFSET	1	0	0
								}
							}
						}
					}
					JOINT left_clavicle
					{
						OFFSET	-43.2	22.4	-70.8
						CHANNELS 3  Xrotation Yrotation Zrotation
						JOINT left_shoulder
						{
							OFFSET	-93.9	-5.79999	48.7
							CHANNELS 3  Xrotation Yrotation Zrotation
							JOINT left_elbow
							{
								OFFSET	-291.4	-30.8	15.2
								CHANNELS 3  Xrotation Yrotation Zrotation
								JOINT left_lowarm_twist
								{
									OFFSET	-110.7	-3.89999	13.6
									CHANNELS 3  Xrotation Yrotation Zrotation
									JOINT left_hand
									{
										OFFSET	-110.7	-3.89999	13.6
										CHANNELS 3  Xrotation Yrotation Zrotation
										JOINT left_ee
										{
											OFFSET	-80.8	-5.10001	12.1
											CHANNELS 3  Xrotation Yrotation Zrotation
											End Site
											{
												OFFSET	1	0	0
											}
										}
									}
								}
							}
						}
					}
					JOINT right_clavicle
					{
						OFFSET	43.2	22.4	-70.8
						CHANNELS 3  Xrotation Yrotation Zrotation
						JOINT right_shoulder
						{
							OFFSET	93.9	-5.79999	48.7
							CHANNELS 3  Xrotation Yrotation Zrotation
							JOINT right_elbow
							{
								OFFSET	291.4	-30.8	15.2
								CHANNELS 3  Xrotation Yrotation Zrotation
								JOINT right_lowarm_twist
								{
									OFFSET	110.7	-3.89999	13.6
									CHANNELS 3  Xrotation Yrotation Zrotation
									JOINT right_hand
									{
										OFFSET	110.7	-3.89999	13.6
										CHANNELS 3  Xrotation Yrotation Zrotation
										JOINT right_ee
										{
											OFFSET	80.8	-5.10001	12.1
											CHANNELS 3  Xrotation Yrotation Zrotation
											End Site
											{
												OFFSET	1	0	0
											}
										}
									}
								}
							}
						}
					}
				}
			}
		}
	}
	JOINT left_hip
	{
		OFFSET	-82.8	-127.5	0.300001
		CHANNELS 3  Xrotation Yrotation Zrotation
		JOINT left_knee
		{
			OFFSET	-28.2	-396.7	2.2
			CHANNELS 3  Xrotation Yrotation Zrotation
			JOINT left_ankle
			{
				OFFSET	-11.7	-411.3	35.4
				CHANNELS 3  Xrotation Yrotation Zrotation
				JOINT left_toes
				{
					OFFSET	0	-60	-88.6
					CHANNELS 3  Xrotation Yrotation Zrotation
					JOINT left_foot_ee
					{
						OFFSET	-22.5	-16.5	-42.2
						CHANNELS 3  Xrotation Yrotation Zrotation
						End Site
						{
							OFFSET	1	0	0
						}
					}
				}
			}
		}
	}
	JOINT right_hip
	{
		OFFSET	82.8	-127.5	0.300001
		CHANNELS 3  Xrotation Yrotation Zrotation
		JOINT right_knee
		{
			OFFSET	28.2	-396.7	2.2
			CHANNELS 3  Xrotation Yrotation Zrotation
			JOINT right_ankle
			{
				OFFSET	11.7	-411.3	35.4
				CHANNELS 3  Xrotation Yrotation Zrotation
				JOINT right_toes
				{
					OFFSET	0	-60	-88.6
					CHANNELS 3  Xrotation Yrotation Zrotation
					JOINT right_foot_ee
					{
						OFFSET	22.5	-16.5	-42.2
						CHANNELS 3  Xrotation Yrotation Zrotation
						End Site
						{
							OFFSET	1	0	0
						}
					}
				}
			}
		}
	}
}
MOTION
Frames: 5
Frame Time: 0.02
809.471477039 628.114 -1843.00883424 0.789138368196 28.7007019512 10.1383528003 0.729248 -0.57613 -4.18364 0.73893 -0.308988 -4.21175 0.764691 0.527912 -4.18999 0.740227 -0.139833 -4.22074 -7.63259 0.709886 3.83994 -7.59007 -1.41636 3.96876 -0.0 0.0 -0.0 10.2691 4.59015 19.9009 -4.27351 -9.29981 58.8868 2.48813 -50.9386 1.18529 -27.4044 -1.72175 3.01742 0.628885 2.36673 5.1719 -0.0 0.0 -0.0 -1.11155 -1.01149 2.00566 -14.586 11.4689 -65.8844 0.843936 22.6877 -0.16931 37.0545 0.204989 4.64756 2.33378 8.64469 -12.1749 0.0 0.0 0.0 13.2395 -24.7529 -8.57794 -9.36407 0.270827 1.40998 -3.54119 29.8523 0.560606 13.9837 -0.0 -0.0 -0.0 0.0 -0.0 20.3691 0.0869065 -2.141 -54.9591 1.68095 -7.94716 18.5318 -8.47835 2.54765 11.8308 -0.0 -0.0 0.0 0.0 0.0 
801.973884406 630.531 -1848.26553957 0.453465528516 27.177578937 10.4006340238 0.708526 -0.641362 -4.21985 0.718353 -0.371791 -4.25203 0.749199 0.475289 -4.24173 0.724155 -0.199949 -4.26355 -7.94382 1.7197 3.60522 -7.90778 0.65415 3.94622 -0.0 0.0 -0.0 10.6216 4.3206 20.6297 -3.67918 -7.98885 57.9582 2.65965 -52.7921 1.32021 -28.8084 -1.84699 3.14667 0.199044 1.12359 1.79817 -0.0 0.0 -0.0 -1.23494 0.0216952 2.3883 -13.9637 11.2621 -66.1209 0.762129 20.6833 -0.139077 36.8151 0.194054 4.61897 2.36285 7.43251 -12.9034 0.0 0.0 0.0 12.7959 -25.9609 -8.37885 -9.86569 0.278792 1.48654 -2.82167 28.0627 0.440947 14.2833 -0.0 -0.0 -0.0 0.0 -0.0 21.3151 1.9855 -1.16042 -44.8039 0.800325 -6.65729 13.8314 -10.5606 1.94109 8.59752 -0.0 -0.0 0.0 0.0 0.0 
793.628615535 631.765 -1853.03154245 -1.31572175923 28.1952258279 11.8871352293 0.996224 -0.917144 -4.90788 1.00942 -0.603378 -4.95613 1.06522 0.359378 -4.97972 1.03089 -0.430587 -4.97408 -7.22302 4.43327 7.89164 -7.05321 2.5564 8.77779 -0.0 0.0 -0.0 10.2014 5.57473 19.6832 -2.47273 -5.82365 59.1289 3.01051 -56.1448 1.60586 -30.9929 -2.04809 3.34164 -1.35163 4.73689 -6.91869 -0.0 0.0 -0.0 -0.970941 -0.556277 1.79856 -14.036 12.0373 -64.4899 0.682687 18.6847 -0.112314 37.0716 0.205777 4.64961 2.34746 6.20796 -13.3237 0.0 0.0 0.0 17.274 -23.449 -8.86219 -15.8634 0.321961 2.40536 -8.26886 26.6343 1.29283 15.9344 -0.0 -0.0 -0.0 0.0 -0.0 21.4427 -0.831975 -5.31844 -32.9215 0.0788761 -4.98285 6.14537 -23.0623 0.915433 4.89292 -0.0 -0.0 0.0 0.0 0.0 
795.975196076 631.765 -1856.39017846 -1.30630620623 27.4150806136 11.8669508413 0.996224 -0.917144 -4.90788 1.00942 -0.603378 -4.95613 1.06522 0.359378 -4.97972 1.03089 -0.430587 -4.97408 -7.22302 4.43327 7.89164 -7.05321 2.5564 8.77779 -0.0 0.0 -0.0 10.2014 5.57473 19.6832 -2.47273 -5.82365 59.1289 3.01051 -56.1448 1.60586 -30.9929 -2.04809 3.34164 -1.35163 4.73689 -6.91869 -0.0 0.0 -0.0 -0.970941 -0.556277 1.79856 -14.036 12.0373 -64.4899 0.682687 18.6847 -0.112314 37.0716 0.205777 4.64961 2.34746 6.20796 -13.3237 0.0 0.0 0.0 17.274 -23.449 -8.86219 -15.8634 0.321961 2.40536 -8.26886 26.6343 1.29283 15.9344 -0.0 -0.0 -0.0 0.0 -0.0 21.4427 -0.831975 -5.31844 -32.9215 0.0788761 -4.98285 6.14537 -23.0623 0.915433 4.89292 -0.0 -0.0 0.0 0.0 0.0 
786.783457785 634.42 -1864.61098164 -2.39210151592 27.084923395 11.5513952152 1.12301 -0.885924 -4.98626 1.13665 -0.567252 -5.03237 1.18963 0.398657 -5.04848 1.15431 -0.402615 -5.04817 -6.39116 7.40078 8.52402 -6.20025 7.46095 9.97538 -0.0 0.0 -0.0 10.4611 4.18996 20.3182 -2.71314 -5.5324 59.4883 3.0287 -56.3041 1.62098 -31.9686 -2.1403 3.42624 -2.02807 7.39278 -10.1484 -0.0 0.0 -0.0 -1.07792 -1.95189 1.81035 -15.0226 13.9928 -63.4072 0.664341 18.2162 -0.106508 37.2292 0.213043 4.6684 2.443 5.12942 -14.4463 0.0 0.0 0.0 18.8763 -21.164 -7.59902 -16.7557 0.320156 2.54225 -9.98312 24.2129 1.54467 18.1622 -0.0 -0.0 -0.0 0.0 -0.0 22.3242 2.05173 -4.94914 -30.0189 -0.0433414 -4.55426 6.57524 -27.8539 1.0042 2.76001 -0.0 -0.0 0.0 0.0 0.0 
